<?xml version="1.0" standalone="no"?>
<!DOCTYPE svg PUBLIC "-//W3C//DTD SVG 20010904//EN"
 "http://www.w3.org/TR/2001/REC-SVG-20010904/DTD/svg10.dtd">
<svg version="1.0" xmlns="http://www.w3.org/2000/svg"
 width="100%" height="100%" viewBox="0 0 3000.000000 984.000000"
 preserveAspectRatio="xMidYMid meet">

<g transform="translate(0.000000,984.000000) scale(0.100000,-0.100000)"
fill="#000000" stroke="none">
<path xmlns="http://www.w3.org/2000/svg" d="M18505 8330 c-33 -4 -95 -19 -137 -34 -42 -14 -88 -26 -101 -26 -14 0 -39 -11 -55 -25 -17 -14 -37 -25 -45 -25 -9 0 -29 -11 -45 -25 -16 -13 -47 -28 -68 -33 -22 -5 -62 -25 -89 -45 -28 -20 -71 -48 -97 -62 -77 -41 -311 -269 -349 -340 -12 -22 -28 -52 -35 -66 -8 -15 -21 -32 -29 -39 -8 -6 -17 -32 -21 -56 -3 -24 -16 -56 -27 -70 -11 -15 -24 -48 -28 -75 -4 -27 -19 -64 -33 -82 -14 -19 -26 -47 -26 -63 0 -16 -10 -58 -21 -94 -15 -46 -24 -114 -31 -230 -7 -123 -15 -176 -29 -209 -10 -24 -19 -54 -19 -67 0 -16 -29 -53 -95 -119 -77 -78 -100 -95 -124 -95 -36 0 -77 -15 -97 -35 -9 -8 -30 -15 -48 -15 -21 0 -40 -8 -55 -24 -20 -21 -22 -31 -19 -127 l3 -104 222 -3 c222 -2 223 -2 238 -26 14 -21 15 -164 12 -1347 -3 -1203 -5 -1330 -20 -1394 -9 -38 -17 -81 -17 -95 0 -40 -61 -149 -106 -188 -52 -46 -126 -92 -148 -92 -25 0 -56 -19 -56 -34 0 -8 -7 -19 -15 -26 -22 -18 -21 -162 1 -184 14 -14 115 -16 965 -16 752 0 949 3 950 13 0 6 2 50 2 96 l2 84 -30 10 c-16 5 -41 20 -56 33 -17 17 -37 24 -64 24 -28 0 -46 7 -65 25 -14 13 -55 53 -92 88 -38 35 -68 68 -68 72 0 5 -8 27 -19 49 -10 23 -23 82 -30 132 -15 122 -16 2726 -1 2755 10 18 25 19 375 19 l365 0 5 23 c3 12 4 117 3 232 l-3 210 -362 3 -363 2 -16 25 c-15 22 -16 62 -10 388 7 386 15 537 33 558 5 8 13 36 17 62 3 31 15 60 31 79 14 16 25 35 25 42 0 7 10 25 23 39 12 14 38 43 57 66 19 22 44 42 56 45 11 3 31 15 44 26 20 17 37 20 115 20 69 0 96 -4 105 -15 6 -8 22 -17 33 -21 44 -13 106 -74 117 -113 5 -21 19 -50 30 -63 11 -15 22 -50 26 -82 4 -31 11 -59 17 -63 17 -10 387 -7 398 4 7 7 10 138 10 358 0 321 -2 348 -18 361 -15 11 -106 13 -478 12 -253 0 -487 -4 -520 -8z" style="&#10;    fill: white;&#10;"/>
<path xmlns="http://www.w3.org/2000/svg" d="M20436 8203 c-341 -2 -493 -7 -503 -14 -10 -9 -13 -98 -13 -465 l0 -454 26 -10 c15 -6 220 -10 513 -10 460 0 489 1 504 18 15 17 17 64 17 465 l0 446 -22 15 c-12 9 -25 15 -28 14 -3 -2 -225 -4 -494 -5z" style="&#10;    fill: white;&#10;"/>

<path xmlns="http://www.w3.org/2000/svg" d="M14754 8160 c-13 -5 -15 -61 -15 -444 0 -320 3 -441 12 -452 10 -12 94 -14 520 -14 492 0 509 1 519 19 6 13 10 174 10 455 0 409 -1 436 -17 436 -363 4 -1018 4 -1029 0z" style="&#10;    fill: white;&#10;"/>

<path xmlns="http://www.w3.org/2000/svg" 
d="M9089 8096 c-12 -13 -12 -1353 1 -1361 5 -3 118 -6 250 -6 132 0 245 3 250 6 6 3 10 27 10 53 0 30 8 62 22 87 12 22 25 66 29 98 4 33 15 67 25 78 9 11 21 44 25 73 4 32 18 70 33 92 14 21 26 49 26 61 0 12 11 30 25 41 14 11 33 39 43 63 22 50 107 149 128 149 7 0 28 13 46 28 18 16 59 41 91 56 l59 28 296 5 c203 4 306 2 325 -6 l27 -11 0 -2157 -1 -2158 -24 -40 c-14 -22 -25 -52 -25 -66 0 -38 -98 -142 -163 -172 -29 -14 -78 -30 -110 -36 -32 -6 -65 -17 -73 -26 -9 -8 -22 -15 -30 -15 -8 0 -23 -9 -34 -20 -16 -16 -20 -33 -20 -94 0 -54 4 -79 16 -90 14 -14 123 -16 1053 -16 793 0 1040 3 1049 12 7 7 12 43 12 93 0 67 -3 85 -18 98 -10 10 -24 17 -31 17 -7 0 -24 9 -38 19 -17 14 -39 20 -74 19 -38 0 -55 6 -80 26 -17 14 -36 26 -43 26 -18 0 -83 71 -91 100 -4 14 -16 35 -27 46 -11 13 -23 45 -27 75 -4 30 -13 64 -19 76 -9 17 -12 511 -12 2139 0 1936 1 2120 16 2142 l16 25 305 -6 c256 -4 308 -8 328 -21 14 -9 25 -21 25 -26 0 -6 9 -10 19 -10 11 0 32 -11 48 -24 15 -13 42 -30 59 -39 41 -21 119 -104 145 -153 12 -21 29 -48 39 -59 10 -11 22 -33 26 -49 4 -16 18 -45 31 -64 14 -22 23 -49 23 -74 0 -25 9 -52 25 -76 17 -25 25 -50 25 -80 0 -28 10 -61 30 -99 20 -37 30 -70 30 -99 0 -28 4 -44 13 -44 6 -1 120 -1 251 -1 183 1 241 4 248 13 9 15 9 1303 0 1336 l-7 22 -2293 3 c-1438 1 -2297 -2 -2303 -7z" style="&#10;    fill: white;&#10;"/>

<path xmlns="http://www.w3.org/2000/svg"
 d="M1836 8024 c-3 -9 -7 -1297 -8 -2862 l-3 -2847 -5 2835 -5 2835 -5 -3085 c-4 -2609 -2 -3224 9 -3145 1 6 8 1 17 -10 15 -20 27 -20 3079 -20 1685 0 3067 3 3071 8 17 17 26 124 31 350 3 164 1 237 -6 237 -8 0 -12 847 -13 2858 l-3 2857 -3076 3 c-2799 2 -3077 1 -3083 -14z m3317 -255 c452 -92 821 -425 961 -868 77 -244 75 -545 -5 -786 -138 -414 -471 -727 -895 -838 -501 -132 -1036 55 -1350 473 -371 493 -329 1193 99 1647 209 221 464 349 782 392 99 14 289 5 408 -20z m-2080 -1990 c23 -11 117 -133 117 -153 0 -3 33 -54 73 -113 132 -195 381 -447 570 -577 l97 -68 0 -379 0 -379 -680 0 c-667 0 -680 0 -700 20 -20 20 -20 33 -20 823 0 487 4 808 10 817 7 12 46 16 197 21 231 7 300 5 336 -12z m4229 -7 c10 -10 13 -176 13 -842 0 -455 -4 -832 -8 -837 -5 -4 -323 -9 -708 -11 l-699 -2 0 398 0 399 108 84 c59 46 170 147 247 224 152 152 255 293 348 475 75 145 33 131 383 128 232 -2 306 -6 316 -16z m-3171 -1007 c32 -17 184 -68 319 -108 154 -45 203 -49 540 -45 291 4 320 6 375 25 33 12 80 27 105 33 25 7 95 34 156 61 62 27 114 49 117 49 2 0 5 -485 5 -1077 0 -800 -3 -1087 -11 -1113 -7 -19 -23 -40 -37 -47 -19 -10 -196 -13 -798 -13 l-773 0 -26 26 -26 26 6 887 c4 487 7 982 7 1099 0 116 2 212 5 212 4 0 19 -7 36 -15z" style="&#10;    fill: red;&#10;"/>
<path d="M1811 8004 c0 -11 3 -14 6 -6 3 7 2 16 -1 19 -3 4 -6 -2 -5 -13z"/>
<path xmlns="http://www.w3.org/2000/svg" d="M23775 6660 c-127 -4 -154 -8 -179 -25 -23 -15 -54 -21 -147 -26 -90 -5 -125 -11 -151 -26 -18 -11 -60 -25 -93 -32 -33 -7 -76 -20 -95 -28 -19 -8 -70 -18 -114 -23 -58 -6 -83 -13 -93 -26 -8 -11 -34 -20 -71 -25 -53 -7 -169 -58 -208 -90 -7 -6 -41 -14 -75 -19 -43 -6 -68 -15 -79 -28 -8 -11 -33 -23 -55 -27 -22 -4 -60 -17 -85 -30 -25 -13 -57 -26 -71 -29 -14 -3 -38 -18 -53 -32 l-26 -27 2 -336 3 -336 356 -3 c278 -2 358 1 366 10 11 15 49 155 58 213 3 22 14 56 24 75 10 19 21 51 25 71 3 21 14 43 23 50 9 8 27 37 39 66 32 71 134 178 205 214 32 16 60 33 64 38 3 6 27 13 53 17 26 3 55 14 66 23 27 24 342 24 359 0 7 -9 28 -20 47 -24 19 -4 44 -15 55 -25 11 -9 28 -22 38 -27 28 -15 157 -143 157 -157 0 -7 11 -27 25 -46 14 -19 25 -47 25 -62 0 -16 9 -46 20 -67 10 -21 24 -77 30 -124 6 -48 15 -108 21 -134 12 -59 24 -536 15 -587 -11 -56 -31 -64 -211 -75 -88 -6 -221 -22 -295 -36 -74 -14 -153 -25 -175 -25 -22 0 -74 -9 -115 -21 -41 -12 -107 -25 -147 -30 -39 -4 -86 -15 -103 -24 -17 -9 -64 -22 -103 -30 -40 -8 -92 -23 -117 -34 -25 -11 -56 -21 -69 -21 -12 0 -44 -11 -70 -24 -25 -14 -65 -30 -89 -36 -31 -8 -46 -18 -52 -36 -6 -14 -17 -24 -30 -24 -11 0 -37 -9 -57 -20 -21 -11 -48 -20 -60 -20 -12 0 -35 -11 -51 -25 -17 -14 -35 -25 -41 -25 -5 0 -26 -13 -44 -30 -19 -16 -38 -30 -41 -30 -12 0 -86 -62 -145 -120 -55 -55 -121 -141 -121 -159 0 -5 -11 -22 -23 -38 -13 -15 -27 -41 -31 -58 -4 -16 -14 -37 -22 -46 -8 -9 -30 -63 -50 -120 l-35 -104 0 -185 c0 -185 0 -185 34 -283 19 -54 42 -106 51 -116 9 -9 19 -32 22 -49 7 -34 150 -194 254 -285 30 -27 59 -56 63 -66 5 -10 30 -23 57 -30 27 -7 51 -18 54 -26 2 -7 28 -18 57 -24 29 -7 61 -19 71 -27 27 -25 230 -37 518 -31 233 5 256 7 270 24 18 23 60 39 120 49 24 3 54 12 65 20 11 7 40 16 63 20 33 5 47 13 55 31 6 13 22 26 36 30 28 6 126 48 151 64 56 36 80 53 119 89 24 22 57 47 75 54 35 16 159 122 164 141 8 33 105 47 117 18 4 -10 6 -115 6 -235 -1 -186 1 -218 15 -232 14 -15 84 -16 722 -14 l707 3 3 98 3 97 -26 0 c-15 0 -37 11 -52 26 -21 21 -38 27 -82 30 -96 5 -231 100 -231 162 0 14 -12 43 -26 64 -24 34 -26 47 -29 155 -2 87 -8 128 -21 158 -17 38 -19 110 -25 1160 -4 616 -10 1131 -15 1145 -4 14 -16 39 -26 55 -12 20 -18 50 -18 91 0 49 -5 69 -26 99 -14 21 -28 54 -32 74 -5 32 -36 91 -62 116 -5 6 -42 43 -82 83 -40 41 -85 81 -101 90 -15 9 -30 24 -33 34 -3 11 -15 18 -30 18 -14 0 -37 12 -51 26 -18 18 -42 28 -77 33 -28 4 -63 15 -78 25 -15 10 -59 20 -106 25 -61 6 -84 13 -101 30 -20 20 -32 21 -203 23 -264 4 -355 4 -523 -2z m477 -2091 c17 -9 18 -32 18 -395 0 -364 -1 -387 -19 -413 -11 -15 -23 -45 -27 -66 -4 -22 -17 -53 -30 -68 -13 -16 -24 -35 -24 -42 0 -17 -42 -66 -149 -175 -97 -98 -155 -140 -192 -140 -15 0 -38 -9 -53 -21 -58 -46 -339 -52 -423 -10 -23 11 -48 21 -55 21 -18 0 -113 72 -146 111 -15 18 -39 46 -54 62 -16 17 -28 40 -28 52 0 11 -11 36 -25 55 -24 33 -25 39 -25 187 0 145 1 157 25 201 14 26 25 61 25 78 0 20 9 39 25 54 14 13 25 28 25 34 0 6 14 38 31 71 36 69 128 168 173 186 17 7 40 20 51 30 11 10 38 25 59 34 22 9 48 28 58 41 11 13 28 24 39 24 11 0 36 8 57 19 20 10 58 21 85 24 26 4 59 15 74 24 31 20 106 27 337 30 82 1 158 -3 168 -8z" style="&#10;    fill: white;&#10;"/>

<path xmlns="http://www.w3.org/2000/svg" d="M15065 6654 c-16 -1 -191 -8 -388 -15 -265 -9 -360 -16 -368 -25 -6 -7 -12 -52 -13 -99 -3 -81 -2 -88 25 -125 16 -22 37 -40 47 -40 9 0 40 -11 67 -25 28 -13 55 -25 62 -25 22 0 115 -82 128 -113 8 -18 23 -45 35 -62 11 -16 20 -40 20 -52 0 -12 9 -37 20 -56 20 -33 20 -50 20 -1311 0 -1125 -1 -1282 -15 -1309 -8 -16 -15 -55 -15 -86 0 -31 -7 -67 -15 -81 -8 -14 -23 -43 -34 -65 -24 -49 -62 -86 -118 -114 -23 -11 -44 -25 -48 -31 -3 -5 -23 -14 -45 -20 -57 -15 -80 -60 -80 -155 0 -54 4 -78 16 -89 14 -15 109 -16 937 -14 l922 3 3 97 3 96 -30 7 c-16 3 -35 13 -41 21 -7 7 -31 19 -53 25 -23 6 -54 22 -70 35 -16 13 -34 24 -41 24 -20 0 -82 72 -95 109 -6 19 -19 43 -29 54 -13 15 -19 48 -25 151 -4 72 -10 840 -13 1706 -4 1210 -8 1576 -17 1582 -11 7 -679 9 -752 2z" style="&#10;    fill: white;&#10;"/>

<path xmlns="http://www.w3.org/2000/svg" d="M20100 6650 c-590 -22 -595 -22 -612 -38 -15 -13 -18 -33 -18 -128 0 -128 4 -134 77 -134 21 0 48 -7 60 -15 12 -9 40 -22 63 -30 51 -18 118 -71 137 -110 9 -16 20 -33 25 -36 15 -10 46 -154 58 -274 8 -78 10 -445 7 -1250 -4 -984 -7 -1153 -20 -1235 -9 -52 -16 -112 -17 -133 0 -57 -24 -98 -101 -176 -64 -65 -89 -79 -161 -95 -15 -3 -29 -14 -33 -25 -3 -10 -14 -26 -25 -36 -17 -15 -20 -31 -20 -95 0 -46 5 -81 12 -88 9 -9 228 -12 923 -12 1054 0 945 -13 945 112 0 108 -16 133 -93 147 -63 11 -68 14 -163 111 -41 41 -65 76 -74 103 -7 23 -17 48 -23 56 -19 23 -26 538 -26 1999 0 755 -3 1377 -6 1383 -7 10 -618 10 -915 -1z" style="&#10;    fill: white;&#10;"/>


</g>
</svg>
