<svg width="64" height="64" viewBox="0 0 64 64" fill="none" xmlns="http://www.w3.org/2000/svg">
<path d="M0 8C0 3.58172 3.58172 0 8 0H56C60.4183 0 64 3.58172 64 8V56C64 60.4183 60.4183 64 56 64H8C3.58172 64 0 60.4183 0 56V8Z" fill="url(#paint0_linear)"/>
<path d="M22.1288 46.3408L22.1344 46.3426L20.0945 49.8581C19.3498 51.1414 17.7005 51.5811 16.4108 50.8402C15.1211 50.0994 14.6791 48.4584 15.4238 47.1751L16.9266 44.5853L17.0708 44.3368C17.3283 43.9684 17.9639 43.3328 19.2353 43.4522C19.2353 43.4522 22.2272 43.7753 22.4437 45.3225C22.4437 45.3225 22.4733 45.8316 22.1288 46.3408ZM51.0629 37.3616H44.7015C44.2683 37.3328 44.079 37.1788 44.0048 37.0894L44.0001 37.0812L37.1903 25.3459L37.1815 25.3517L36.7731 24.7691C36.1038 23.7508 35.041 26.3554 35.041 26.3554C33.772 29.2577 35.221 32.5575 35.7263 33.5548L45.1846 49.8545C45.9292 51.1377 47.5785 51.5774 48.8682 50.8365C50.1579 50.0957 50.5999 48.4547 49.8552 47.1715L47.4901 43.0956C47.4443 42.9969 47.3645 42.7287 47.8496 42.7276H51.0629C52.5522 42.7276 53.7595 41.5264 53.7595 40.0446C53.7595 38.5629 52.5522 37.3616 51.0629 37.3616ZM38.7069 41.0091C38.7069 41.0091 39.0465 42.7276 37.7326 42.7276H36.4188V42.7276H14.2161C12.7269 42.7276 11.5195 41.5264 11.5195 40.0446C11.5195 38.5629 12.7269 37.3616 14.2161 37.3616H20.262C21.2381 37.3053 21.4695 36.7447 21.4695 36.7447L21.4748 36.7474L29.3666 23.1472L29.3643 23.1467C29.5082 22.884 29.3884 22.6358 29.3675 22.5965L26.7613 18.1051C26.0166 16.8218 26.4585 15.1809 27.7483 14.44C29.038 13.6991 30.6872 14.1388 31.4319 15.422L32.6406 17.5051L33.8472 15.4257C34.5919 14.1425 36.2411 13.7028 37.5309 14.4437C38.8206 15.1846 39.2625 16.8256 38.5179 18.1088L27.5362 37.0337C27.4881 37.1489 27.4734 37.3298 27.8307 37.3616H34.3949L34.3963 37.4252C34.3963 37.4252 38.1903 37.484 38.7069 41.0091Z" fill="white"/>
<defs>
<linearGradient id="paint0_linear" x1="32" y1="64" x2="32" y2="0" gradientUnits="userSpaceOnUse">
<stop stop-color="#1D76F2"/>
<stop offset="1" stop-color="#1AC2FB"/>
</linearGradient>
</defs>
</svg>
