<svg width="53" height="64" viewBox="0 0 53 64" fill="none" xmlns="http://www.w3.org/2000/svg">
<path d="M38.4041 0C38.5531 0 38.702 0 38.8594 0C39.2248 4.51342 37.502 7.88583 35.4083 10.328C33.3539 12.7534 30.5408 15.1056 25.9908 14.7487C25.6873 10.2999 27.4129 7.17763 29.5038 4.74106C31.4429 2.4703 34.998 0.449656 38.4041 0Z" fill="#3E3E3E"/>
<path d="M52.1769 46.9774C52.1769 47.0223 52.1769 47.0617 52.1769 47.1038C50.8982 50.9765 49.0743 54.2955 46.8485 57.3756C44.8166 60.1719 42.3266 63.935 37.8807 63.935C34.0389 63.935 31.4871 61.4647 27.5498 61.3973C23.3849 61.3298 21.0945 63.4629 17.2864 63.9996C16.8508 63.9996 16.4152 63.9996 15.9881 63.9996C13.1918 63.5949 10.9351 61.3804 9.29101 59.385C4.44316 53.4889 0.696966 45.8729 0 36.1266C0 35.1711 0 34.2184 0 33.2629C0.295086 26.2876 3.68437 20.6163 8.18935 17.8678C10.5669 16.4064 13.8353 15.1614 17.4747 15.7179C19.0345 15.9596 20.6279 16.4935 22.0247 17.0219C23.3484 17.5305 25.0037 18.4327 26.5718 18.3849C27.6341 18.354 28.6908 17.8003 29.7616 17.4097C32.8979 16.2771 35.9724 14.9788 40.025 15.5886C44.8953 16.3249 48.352 18.4889 50.4879 21.8276C46.3679 24.4496 43.1107 28.401 43.6672 35.1486C44.1618 41.278 47.7253 44.864 52.1769 46.9774Z" fill="#3E3E3E"/>
</svg>
